{"title":"The Paperboy (2012) BRRip XviD - Exclusive","uid":7984139,"size":739252973,"categoryP":"video","categoryS":"movies","magnet":"?xt=urn:btih:fe6ea1e10380b12ccbd80fabe1f5489affc1a528&amp;dn=The+Paperboy+%282012%29+BRRip+XviD+-+Exclusive&amp;tr=udp%3A%2F%2Ftracker.openbittorrent.com%3A80&amp;tr=udp%3A%2F%2Fopen.demonii.com%3A1337&amp;tr=udp%3A%2F%2Ftracker.coppersurfer.tk%3A6969&amp;tr=udp%3A%2F%2Fexodus.desync.com%3A6969","seeders":1,"leechers":1,"uploader":"tykoon123","files":-1,"time":1357248556,"description":"Cover: &lt;a href=&quot;\nhttp://www.shotpix.com/images/33002083820966954255.jpg&quot; rel=&quot;nofollow&quot; target=&quot;_NEW&quot;&gt;\nhttp://www.shotpix.com/images/33002083820966954255.jpg&lt;/a&gt;\n\nInfo:\n\nFormat : AVI\nFormat/Info : Audio Video Interleave\nFile size : 705 MiB\nDuration : 1h 46mn\nOverall bit rate : 923 Kbps\nWriting library : VirtualDub build 34807/release\n\nVideo\nID : 0\nFormat : MPEG-4 Visual\nFormat profile : Advanced Simple@L5\nFormat settings, BVOP : 4\nFormat settings, QPel : No\nFormat settings, GMC : No warppoints\nFormat settings, Matrix : Default (H.263)\nMuxing mode : Packed bitstream\nCodec ID : XVID\nCodec ID/Hint : XviD\nDuration : 1h 46mn\nBit rate : 786 Kbps\nWidth : 656 pixels\nHeight : 272 pixels\nDisplay aspect ratio : 2.40:1\nFrame rate : 23.976 fps\nColor space : YUV\nChroma subsampling : 4:2:0\nBit depth : 8 bits\nScan type : Progressive\nCompression mode : Lossy\nBits/(Pixel*Frame) : 0.184\nStream size : 600 MiB (85%)\nWriting library : XviD 64\n\nAudio\nID : 1\nFormat : MPEG Audio\nFormat version : Version 1\nFormat profile : Layer 3\nCodec ID : 55\nCodec ID/Hint : MP3\nDuration : 1h 46mn\nBit rate mode : Constant\nBit rate : 128 Kbps\nChannel(s) : 2 channels\nSampling rate : 48.0 KHz\nCompression mode : Lossy\nStream size : 97.7 MiB (14%)\nAlignment : Split accross interleaves\nInterleave, duration : 42 ms (1.00 video frame)\nInterleave, preload duration : 500 ms\nWriting library : LAMELAME\n\n\nScreens: &lt;a href=&quot;\nhttp://www.shotpix.com/images/45049596451414194286.jpg&quot; rel=&quot;nofollow&quot; target=&quot;_NEW&quot;&gt;\nhttp://www.shotpix.com/images/45049596451414194286.jpg&lt;/a&gt; &lt;a href=&quot;\nhttp://www.shotpix.com/images/80509361251875576576.jpg&quot; rel=&quot;nofollow&quot; target=&quot;_NEW&quot;&gt;\nhttp://www.shotpix.com/images/80509361251875576576.jpg&lt;/a&gt; &lt;a href=&quot;\nhttp://www.shotpix.com/images/23441151288769594707.jpg&quot; rel=&quot;nofollow&quot; target=&quot;_NEW&quot;&gt;\nhttp://www.shotpix.com/images/23441151288769594707.jpg&lt;/a&gt; &lt;a href=&quot;\nhttp://www.shotpix.com/images/15886865913154595028.jpg&quot; rel=&quot;nofollow&quot; target=&quot;_NEW&quot;&gt;\nhttp://www.shotpix.com/images/15886865913154595028.jpg&lt;/a&gt; &lt;a href=&quot;\nhttp://www.shotpix.com/images/42539764396618555919.jpg&quot; rel=&quot;nofollow&quot; target=&quot;_NEW&quot;&gt;\nhttp://www.shotpix.com/images/42539764396618555919.jpg&lt;/a&gt; &lt;a href=&quot;\nhttp://www.shotpix.com/images/80165642408732736235.jpg&quot; rel=&quot;nofollow&quot; target=&quot;_NEW&quot;&gt;\nhttp://www.shotpix.com/images/80165642408732736235.jpg&lt;/a&gt; &lt;a href=&quot;\nhttp://www.shotpix.com/images/71268189514754388301.jpg&quot; rel=&quot;nofollow&quot; target=&quot;_NEW&quot;&gt;\nhttp://www.shotpix.com/images/71268189514754388301.jpg&lt;/a&gt; &lt;a href=&quot;\nhttp://www.shotpix.com/images/43865645702346962674.jpg&quot; rel=&quot;nofollow&quot; target=&quot;_NEW&quot;&gt;\nhttp://www.shotpix.com/images/43865645702346962674.jpg&lt;/a&gt;\n\n\n\n\n","torrent":{"xt":"urn:btih:fe6ea1e10380b12ccbd80fabe1f5489affc1a528","amp;dn":"The+Paperboy+%282012%29+BRRip+XviD+-+Exclusive","amp;tr":["udp%3A%2F%2Ftracker.openbittorrent.com%3A80","udp%3A%2F%2Fopen.demonii.com%3A1337","udp%3A%2F%2Ftracker.coppersurfer.tk%3A6969","udp%3A%2F%2Fexodus.desync.com%3A6969"],"infoHash":"fe6ea1e10380b12ccbd80fabe1f5489affc1a528","infoHashBuffer":{"type":"Buffer","data":[254,110,161,225,3,128,177,44,203,216,15,171,225,245,72,154,255,193,165,40]},"announce":[],"urlList":[]}}